<svg xmlns="http://www.w3.org/2000/svg" width="12.68" height="23.44" viewBox="0 0 12.68 23.44">
  <defs>
    <style>
      .cls-1 {
        fill: #fff;
        fill-rule: evenodd;
      }
    </style>
  </defs>
  <path id="fb" class="cls-1" d="M2312.61,1244.07l-3.04-.01c-3.42,0-5.63,2.27-5.63,5.77v2.66h-3.06a0.478,0.478,0,0,0-.48.47v3.86a0.478,0.478,0,0,0,.48.47h3.06v9.72a0.474,0.474,0,0,0,.48.48h3.99a0.48,0.48,0,0,0,.48-0.48v-9.72h3.58a0.478,0.478,0,0,0,.48-0.47v-3.86a0.471,0.471,0,0,0-.14-0.33,0.494,0.494,0,0,0-.34-0.14h-3.58v-2.26c0-1.08.26-1.63,1.67-1.63h2.05a0.474,0.474,0,0,0,.48-0.48v-3.57A0.474,0.474,0,0,0,2312.61,1244.07Z" transform="translate(-2300.41 -1244.06)"/>
</svg>
