<svg xmlns="http://www.w3.org/2000/svg" width="21" height="17.06" viewBox="0 0 21 17.06">
  <defs>
    <style>
      .cls-1 {
        fill: #fff;
        fill-rule: evenodd;
      }
    </style>
  </defs>
  <path id="tw" class="cls-1" d="M2317.43,1314.18a8.66,8.66,0,0,1-2.74,1.05,4.308,4.308,0,0,0-7.45,2.95,4.036,4.036,0,0,0,.11.98,12.26,12.26,0,0,1-8.89-4.51,4.327,4.327,0,0,0,1.34,5.76,4.274,4.274,0,0,1-1.95-.54v0.05a4.314,4.314,0,0,0,3.45,4.23,4.221,4.221,0,0,1-1.13.15,4.278,4.278,0,0,1-.81-0.08,4.32,4.32,0,0,0,4.02,3,8.66,8.66,0,0,1-5.35,1.84,8.766,8.766,0,0,1-1.03-.06,12.253,12.253,0,0,0,18.87-10.33l-0.01-.56a8.728,8.728,0,0,0,2.15-2.22,8.857,8.857,0,0,1-2.47.68A4.328,4.328,0,0,0,2317.43,1314.18Z" transform="translate(-2297 -1313.88)"/>
</svg>
